<svg width="12" height="10" viewBox="0 0 12 10" fill="none" xmlns="http://www.w3.org/2000/svg">
<path d="M11.2266 1.82031C11.2734 1.49219 11.25 1.28125 11.1094 1.14062C10.9688 1 10.7812 0.976562 10.5469 1.04688L1.24219 4.63281C0.914062 4.77344 0.75 4.91406 0.75 5.05469C0.726562 5.21875 0.84375 5.33594 1.125 5.40625L3.51562 6.15625L9.04688 2.66406C9.11719 2.61719 9.1875 2.59375 9.25781 2.59375C9.32812 2.59375 9.375 2.59375 9.39844 2.64062C9.42188 2.6875 9.39844 2.71094 9.35156 2.75781L4.875 6.8125L4.6875 9.27344C4.80469 9.27344 4.89844 9.25 4.99219 9.20312C5.03906 9.17969 5.08594 9.13281 5.17969 9.03906L6.35156 7.91406L8.76562 9.69531C8.97656 9.83594 9.16406 9.85938 9.30469 9.78906C9.44531 9.71875 9.5625 9.55469 9.63281 9.27344L11.2266 1.82031Z" fill="white"/>
</svg>
